<svg xmlns="http://www.w3.org/2000/svg" viewBox="0 0 397.13 172.1"><title>Asset 2</title><polygon points="343.19 17.12 389.19 25.12 388.19 33.12 385.19 33.12 372.19 88.12 338.19 82.12 344.19 26.12 341.19 25.12 343.19 17.12" style="fill:#fffcf9"/><polygon points="382.19 44.12 366.04 39.93 358.06 38.59 352.19 39.12 348.19 68.12 375.19 73.12 382.19 44.12" style="fill:#ef476f"/><text transform="translate(3 76.7)" style="font-size:75.87202453613281px;fill:#26547c;stroke:#26547c;stroke-miterlimit:10;stroke-width:6px;font-family:Nunito-Medium, Nunito;font-weight:500;letter-spacing:0.049998099489798484em">Smoothr</text><text/><path d="M393.42,9.88l-3.91-5.1L377.19,1.12l-5,1-6,4-1,8-1,6,4,1,2-12s0-7,20-1Z" style="fill:#ef476f"/><path d="M377.39,2.75,396.7,6l.43-2.59L377.82.16a11.43,11.43,0,0,0-13.14,9.36L363,19.35l-21.36-3.59-1.74,10.36,3.2.54-5.65,56.51,35.76,6,13.12-55.25,3.2.53L391.3,24.1l-21.36-3.59,1.65-9.83a4.41,4.41,0,0,1,5.07-3.62L396,10.3l.44-2.58L377.1,4.47a7,7,0,0,0-8.1,5.77l-1.65,9.84-1.73-.29L367.27,10A8.79,8.79,0,0,1,377.39,2.75ZM369.5,23.1l18.78,3.15-.87,5.18-1.82-.3-1.22-.21-4.57-.77-.43,2.59,4.39.74-2.15,9.07-17.26-2.9-.43,2.59,16.92,2.84-6.08,26.05L349.4,66.87l4.42-26.33,6.64,1.12.44-2.59-9.23-1.55L346.38,69l27.84,4.68-3,12.48L340.34,81l5.39-53.9,4.4.74.43-2.59L346,24.48l-1.21-.21L343,24l.87-5.18,18.78,3.15,6.9,1.16Z" style="fill:#26547c"/><text transform="translate(25.4 113.45)" style="font-size:28px;fill:#26547c;font-family:Nunito-SemiBold, Nunito;font-weight:600">An Animated React Router</text><text transform="translate(3 76.7)" style="font-size:75.87202453613281px;fill:#ef476f;font-family:Nunito-Medium, Nunito;font-weight:500;letter-spacing:0.049998099489798484em">Smoothr</text></svg>